/* XPM */
static char * manaplus_xpm[] = {
"32 32 10 1",
" 	c None",
".	c #663300",
"X	c #673200",
"o	c #663400",
"O	c #653400",
"+	c #653200",
"@	c #653300",
"#	c #673300",
"$	c #663200",
"%	c #673400",
"         ..       .             ",
"           ..    X     .        ",
"       .X   ..   o   O.         ",
"        +@o  .o O# o.           ",
"          Xo. $.@ .  o%.        ",
"             $.#$.#$+           ",
"          .   $$$##             ",
"           ....$@+   %.         ",
"             ....o#$X           ",
"              .$o..             ",
"              .@@.              ",
"              Oo#.              ",
"               o                ",
"              #@ .              ",
"              O...              ",
"               $.o              ",
"              #.$.              ",
"               ..%              ",
"              #$@.              ",
"              ....              ",
"       # O%.@..$.#.o    .       ",
"       +# oO X+$..@ .#$$        ",
"          %  +...o #   %        ",
"         O   %o..$oO O.%        ",
"        o   #O$@ X#  +          ",
"           #  $    $  %         ",
"         O.  . $    #@          ",
"         o           XO         ",
"        .  X          $X        ",
"        #   +         +         ",
"        .   @         .         ",
"         .$#        $@          "};
