/* XPM */
static char * mana_xpm[] = {
"32 32 5 1",
" 	c None",
".	c #FF6600",
"+	c #FF6500",
"@	c #FF6700",
"#	c #FF6400",
"            ...+.....@          ",
"          .....+.......+        ",
"        @....+          ..      ",
"       +...+                    ",
"      ....                      ",
"     +...                       ",
"    ...+                        ",
"   +..+                         ",
"  #...                          ",
"  ...       ..++    ++++        ",
" +..+  @+........++.......      ",
" +..   +.....+......++....+     ",
" ..+   .....  +.....  .....     ",
"+..+   ....+   .....   ....     ",
"+...   ....    ....    ....     ",
"+..    ....    ....    ....     ",
"+..   +...+   @...+   +....     ",
"..+   .....   +...+   .....     ",
"+..   +....   +....   ....+     ",
"...   +...@   .....   +...#     ",
"+.+   ....+   +...    ....@ @+. ",
" ..   ....    +...    +...@++...",
" +.#  ++++    +++@    +++.+#   .",
"  ++                    ++     .",
"  +.                    .+    +.",
"   +.                  ..    .. ",
"    .+                @...  .+  ",
"     ..               .......   ",
"      ..            .+.....+    ",
"       ..+        @......+.     ",
"         .++..+++.......@       ",
"            ..+.++.+..          "};
