/* XPM */
static char * manaplus_xpm[] = {
"32 32 6 1",
" 	c None",
".	c #FF6600",
"X	c #FF6500",
"o	c #FF6400",
"O	c #FF6700",
"+	c #FF6300",
"              .X.XX..           ",
"           ..X...o  .X.O        ",
"         XX..o               .  ",
"        ..X.                o   ",
"      X.X.              +  XX   ",
"     ..X.                o+oX+  ",
"    ....                  +XXXX ",
"   X..X                    oo  .",
"   ..X                     o    ",
"  X..        ...     ...  .     ",
"  ..X   ...X.X.....X....XX      ",
" ...   O....  ....X.  .....     ",
" ...   ....X   .....   ....     ",
"o..X   X...    ....    ...X     ",
"X..    ....    ....    ....     ",
"...    ....    ....    ....     ",
"...    ....    ....    ...X     ",
"...    ....    ....    ...X     ",
"...   X...X   .....    ...X     ",
"...   X...    X...    X...      ",
" ..   ....    ....    X..X      ",
" ..   ...X    ....    ....XXX.X.",
" X.   ...     ...     ..X..    X",
"  .X                     X     .",
"  X.                    ..    .X",
"   X.                  ..    XX ",
"    ..                 X.X  XX  ",
"     XX               X...X..   ",
"      .X             X.....X    ",
"        XX         ....X..      ",
"          XXX.O.XX.X.X..        ",
"             ..X..X..           "};
